<svg width="79" height="50" viewBox="0 0 79 50" fill="none" xmlns="http://www.w3.org/2000/svg">
<g id="Bank Card">
<path id="Vector" d="M73.8617 0H4.43982C1.99384 0 0 1.98571 0 4.43982V45.5602C0 48.0141 1.99384 50 4.43982 50H73.8617C76.3077 50 78.3015 48.0143 78.3015 45.5602V4.43982C78.3015 1.98571 76.3077 0 73.8617 0ZM59.9835 28.751H61.4253C61.7431 28.7561 62.0462 28.8859 62.2691 29.1124C62.4921 29.3389 62.617 29.644 62.617 29.9618C62.617 30.2797 62.4921 30.5847 62.2691 30.8113C62.0462 31.0378 61.7431 31.1676 61.4253 31.1726H59.9835C59.6657 31.1676 59.3627 31.0378 59.1397 30.8113C58.9168 30.5847 58.7918 30.2797 58.7918 29.9618C58.7918 29.644 58.9168 29.3389 59.1397 29.1124C59.3627 28.8859 59.6657 28.7561 59.9835 28.751ZM54.779 28.751H56.2209C56.5387 28.7561 56.8417 28.8859 57.0647 29.1124C57.2876 29.3389 57.4125 29.644 57.4125 29.9618C57.4125 30.2797 57.2876 30.5847 57.0647 30.8113C56.8417 31.0378 56.5387 31.1676 56.2209 31.1726H54.779C54.4613 31.1676 54.1582 31.0378 53.9353 30.8113C53.7123 30.5847 53.5874 30.2797 53.5874 29.9618C53.5874 29.644 53.7123 29.3389 53.9353 29.1124C54.1582 28.8859 54.4613 28.7561 54.779 28.751ZM43.6346 28.751H45.0765C45.3942 28.7561 45.6973 28.8859 45.9202 29.1124C46.1432 29.3389 46.2681 29.644 46.2681 29.9618C46.2681 30.2797 46.1432 30.5847 45.9202 30.8113C45.6973 31.0378 45.3942 31.1676 45.0765 31.1726H43.6346C43.3168 31.1676 43.0138 31.0378 42.7908 30.8113C42.5679 30.5847 42.4429 30.2797 42.4429 29.9618C42.4429 29.644 42.5679 29.3389 42.7908 29.1124C43.0138 28.8859 43.3168 28.7561 43.6346 28.751ZM11.6737 6.88963H38.5547C39.2236 6.88963 39.7655 7.43166 39.7655 8.10042C39.7655 8.76917 39.2235 9.31121 38.5547 9.31121H11.6737C11.0048 9.31121 10.4629 8.76917 10.4629 8.10042C10.4629 7.43166 11.0048 6.88963 11.6737 6.88963ZM24.4051 16.2895V22.5047C24.4051 23.4245 23.6595 24.1701 22.7397 24.1701H12.4545C11.5347 24.1701 10.7891 23.4245 10.7891 22.5047V16.2895C10.7891 15.3698 11.5347 14.6241 12.4545 14.6241H22.7399C23.6595 14.6241 24.4051 15.3698 24.4051 16.2895ZM13.1136 31.1728H11.6714C11.5124 31.1728 11.3549 31.1415 11.208 31.0807C11.0611 31.0199 10.9276 30.9307 10.8152 30.8182C10.7027 30.7058 10.6135 30.5723 10.5527 30.4254C10.4919 30.2785 10.4606 30.121 10.4606 29.962C10.4606 29.803 10.4919 29.6455 10.5527 29.4986C10.6135 29.3517 10.7027 29.2182 10.8152 29.1057C10.9276 28.9933 11.0611 28.9041 11.208 28.8433C11.3549 28.7824 11.5124 28.7512 11.6714 28.7512H13.1136C13.2726 28.7512 13.43 28.7824 13.577 28.8433C13.7239 28.9041 13.8574 28.9933 13.9698 29.1057C14.0823 29.2182 14.1714 29.3517 14.2323 29.4986C14.2931 29.6455 14.3244 29.803 14.3244 29.962C14.3244 30.121 14.2931 30.2785 14.2323 30.4254C14.1714 30.5723 14.0823 30.7058 13.9698 30.8182C13.8574 30.9307 13.7239 31.0199 13.577 31.0807C13.43 31.1415 13.2726 31.1728 13.1136 31.1728ZM18.318 31.1728H16.8762C16.7172 31.1728 16.5597 31.1415 16.4128 31.0807C16.2659 31.0199 16.1324 30.9307 16.0199 30.8182C15.9075 30.7058 15.8183 30.5723 15.7575 30.4254C15.6966 30.2785 15.6654 30.121 15.6654 29.962C15.6654 29.803 15.6966 29.6455 15.7575 29.4986C15.8183 29.3517 15.9075 29.2182 16.0199 29.1057C16.1324 28.9933 16.2659 28.9041 16.4128 28.8433C16.5597 28.7824 16.7172 28.7512 16.8762 28.7512H18.318C18.477 28.7512 18.6345 28.7824 18.7814 28.8433C18.9283 28.9041 19.0618 28.9933 19.1743 29.1057C19.2867 29.2182 19.3759 29.3517 19.4367 29.4986C19.4976 29.6455 19.5289 29.803 19.5288 29.962C19.5289 30.121 19.4976 30.2785 19.4367 30.4254C19.3759 30.5723 19.2867 30.7058 19.1743 30.8182C19.0618 30.9307 18.9283 31.0199 18.7814 31.0807C18.6345 31.1415 18.477 31.1728 18.318 31.1728ZM23.523 31.1728H22.0808C21.9218 31.1728 21.7643 31.1415 21.6174 31.0807C21.4705 31.0199 21.337 30.9307 21.2246 30.8182C21.1121 30.7058 21.0229 30.5723 20.9621 30.4254C20.9013 30.2785 20.87 30.121 20.87 29.962C20.87 29.803 20.9013 29.6455 20.9621 29.4986C21.0229 29.3517 21.1121 29.2182 21.2246 29.1057C21.337 28.9933 21.4705 28.9041 21.6174 28.8433C21.7643 28.7824 21.9218 28.7512 22.0808 28.7512H23.523C23.682 28.7512 23.8394 28.7824 23.9863 28.8433C24.1333 28.9041 24.2668 28.9933 24.3792 29.1057C24.4916 29.2182 24.5808 29.3517 24.6417 29.4986C24.7025 29.6455 24.7338 29.803 24.7337 29.962C24.7338 30.121 24.7025 30.2785 24.6417 30.4254C24.5808 30.5723 24.4916 30.7058 24.3792 30.8182C24.2668 30.9307 24.1333 31.0199 23.9863 31.0807C23.8394 31.1415 23.682 31.1728 23.523 31.1728ZM34.6672 31.1728H33.2251C33.0661 31.1728 32.9086 31.1415 32.7617 31.0807C32.6148 31.0199 32.4813 30.9307 32.3688 30.8182C32.2564 30.7058 32.1672 30.5723 32.1064 30.4254C32.0455 30.2785 32.0142 30.121 32.0143 29.962C32.0142 29.803 32.0455 29.6455 32.1064 29.4986C32.1672 29.3517 32.2564 29.2182 32.3688 29.1057C32.4813 28.9933 32.6148 28.9041 32.7617 28.8433C32.9086 28.7824 33.0661 28.7512 33.2251 28.7512H34.6672C34.8262 28.7512 34.9837 28.7824 35.1306 28.8433C35.2775 28.9041 35.411 28.9933 35.5235 29.1057C35.6359 29.2182 35.7251 29.3517 35.7859 29.4986C35.8468 29.6455 35.8781 29.803 35.878 29.962C35.8781 30.121 35.8468 30.2785 35.7859 30.4254C35.7251 30.5723 35.6359 30.7058 35.5235 30.8182C35.411 30.9307 35.2775 31.0199 35.1306 31.0807C34.9837 31.1415 34.8262 31.1728 34.6672 31.1728ZM37.2191 29.962C37.219 29.803 37.2503 29.6455 37.3111 29.4986C37.372 29.3517 37.4612 29.2182 37.5736 29.1057C37.686 28.9933 37.8195 28.9041 37.9664 28.8433C38.1134 28.7824 38.2708 28.7512 38.4298 28.7512H39.8717C40.0323 28.7486 40.1918 28.7781 40.341 28.8378C40.4901 28.8975 40.6259 28.9862 40.7404 29.0989C40.8549 29.2116 40.9458 29.346 41.0079 29.4941C41.0699 29.6423 41.1019 29.8013 41.1019 29.962C41.1019 30.1226 41.0699 30.2817 41.0079 30.4298C40.9458 30.578 40.8549 30.7124 40.7404 30.825C40.6259 30.9377 40.4901 31.0265 40.341 31.0862C40.1918 31.1459 40.0323 31.1753 39.8717 31.1728H38.4298C38.2708 31.1728 38.1134 31.1415 37.9664 31.0807C37.8195 31.0199 37.686 30.9307 37.5736 30.8182C37.4612 30.7058 37.372 30.5723 37.3111 30.4254C37.2503 30.2785 37.219 30.121 37.2191 29.962ZM66.6298 43.1102H49.5944C49.2766 43.1052 48.9735 42.9754 48.7506 42.7489C48.5276 42.5223 48.4027 42.2173 48.4027 41.8994C48.4027 41.5816 48.5276 41.2765 48.7506 41.05C48.9735 40.8235 49.2766 40.6937 49.5944 40.6886H66.6298C66.9476 40.6937 67.2506 40.8235 67.4736 41.05C67.6965 41.2765 67.8215 41.5816 67.8215 41.8994C67.8215 42.2173 67.6965 42.5223 67.4736 42.7489C67.2506 42.9754 66.9476 43.1052 66.6298 43.1102ZM66.6298 37.5834H39.7486C39.0797 37.5834 38.5378 37.0414 38.5378 36.3726C38.5378 35.7039 39.0799 35.1618 39.7486 35.1618H66.6298C66.9476 35.1669 67.2506 35.2967 67.4736 35.5232C67.6965 35.7497 67.8215 36.0548 67.8215 36.3726C67.8215 36.6905 67.6965 36.9955 67.4736 37.2221C67.2506 37.4486 66.9476 37.5784 66.6298 37.5834ZM66.6298 31.1728H65.188C64.8702 31.1677 64.5671 31.0379 64.3442 30.8114C64.1212 30.5849 63.9963 30.2798 63.9963 29.962C63.9963 29.6442 64.1212 29.3391 64.3442 29.1126C64.5671 28.886 64.8702 28.7562 65.188 28.7512H66.6298C66.9476 28.7562 67.2506 28.886 67.4736 29.1126C67.6965 29.3391 67.8215 29.6442 67.8215 29.962C67.8215 30.2798 67.6965 30.5849 67.4736 30.8114C67.2506 31.0379 66.9476 31.1677 66.6298 31.1728Z" fill="white"/>
</g>
</svg>
