<svg width="15" height="16" viewBox="0 0 15 16" fill="none" xmlns="http://www.w3.org/2000/svg">
<path id="Layer 2" d="M14.6046 15.4836H14.4941L11.2336 14.5046C9.65691 15.4096 7.80522 15.7111 6.02289 15.3531C4.24057 14.9951 2.64896 14.0018 1.5441 12.5582C0.439234 11.1145 -0.103665 9.31871 0.0163785 7.50475C0.136422 5.69079 0.911235 3.98217 2.1967 2.6967C3.48217 1.41124 5.19079 0.636422 7.00475 0.516379C8.81871 0.396335 10.6145 0.939234 12.0582 2.0441C13.5018 3.14896 14.4951 4.74057 14.8531 6.52289C15.2111 8.30522 14.9096 10.1569 14.0046 11.7336L14.9836 14.9941C15.0025 15.0619 15.003 15.1335 14.9849 15.2015C14.9669 15.2695 14.931 15.3315 14.8809 15.3809C14.8443 15.416 14.8009 15.4432 14.7534 15.4609C14.7059 15.4785 14.6552 15.4862 14.6046 15.4836ZM7.49937 1.27307C6.46395 1.27255 5.44245 1.51165 4.51482 1.97165C3.58719 2.43165 2.77859 3.10007 2.15229 3.9246C1.526 4.74914 1.099 5.70742 0.90472 6.72445C0.710437 7.74148 0.754139 8.78968 1.03241 9.78701C1.31067 10.7843 1.81595 11.7037 2.50871 12.4733C3.20146 13.2428 4.0629 13.8416 5.0256 14.2228C5.9883 14.604 7.02616 14.7572 8.05795 14.6705C9.08973 14.5838 10.0875 14.2595 10.9731 13.723C11.0202 13.6917 11.074 13.6718 11.1302 13.6649C11.1864 13.6581 11.2434 13.6645 11.2967 13.6836L14.0125 14.473L13.223 11.7573C13.2057 11.7037 13.2002 11.647 13.207 11.5911C13.2138 11.5351 13.2328 11.4814 13.2625 11.4336C13.8732 10.4147 14.2025 9.25197 14.2168 8.06417C14.2311 6.87636 13.9298 5.70606 13.3437 4.67281C12.7576 3.63956 11.9078 2.7804 10.881 2.18309C9.85421 1.58579 8.68726 1.27176 7.49937 1.27307Z" fill="black"/>
</svg>
