<svg width="15" height="15" viewBox="0 0 15 15" fill="none" xmlns="http://www.w3.org/2000/svg">
<path id="Vector" d="M13.1414 14.878H9.88352C8.99718 14.878 8.27852 14.1769 8.27852 13.3122V9.03529C8.27852 8.77821 8.49411 8.56787 8.75762 8.56787H13.1414C14.0278 8.56787 14.7464 9.269 14.7464 10.1337V13.3122C14.7464 14.1769 14.0278 14.878 13.1414 14.878ZM9.23673 9.50271V13.3122C9.23673 13.6627 9.52419 13.9432 9.88352 13.9432H13.1414C13.5008 13.9432 13.7882 13.6627 13.7882 13.3122V10.1337C13.7882 9.78316 13.5008 9.50271 13.1414 9.50271H9.23673ZM5.2362 14.878H1.97829C1.09195 14.878 0.373291 14.1769 0.373291 13.3122V10.1337C0.373291 9.269 1.09195 8.56787 1.97829 8.56787H6.3621C6.62561 8.56787 6.8412 8.77821 6.8412 9.03529V13.3122C6.8412 14.1769 6.12255 14.878 5.2362 14.878ZM1.97829 9.50271C1.61896 9.50271 1.3315 9.78316 1.3315 10.1337V13.3122C1.3315 13.6627 1.61896 13.9432 1.97829 13.9432H5.2362C5.59553 13.9432 5.88299 13.6627 5.88299 13.3122V9.50271H1.97829ZM13.1414 7.16561H8.75762C8.49411 7.16561 8.27852 6.95527 8.27852 6.69819V2.42131C8.27852 1.55658 8.99718 0.855453 9.88352 0.855453H13.1414C14.0278 0.855453 14.7464 1.55658 14.7464 2.42131V5.59976C14.7464 6.46448 14.0278 7.16561 13.1414 7.16561ZM9.23673 6.23077H13.1414C13.5008 6.23077 13.7882 5.95032 13.7882 5.59976V2.42131C13.7882 2.07074 13.5008 1.79029 13.1414 1.79029H9.88352C9.52419 1.79029 9.23673 2.07074 9.23673 2.42131V6.23077ZM6.3621 7.16561H1.97829C1.09195 7.16561 0.373291 6.46448 0.373291 5.59976V2.42131C0.373291 1.55658 1.09195 0.855453 1.97829 0.855453H5.2362C6.12255 0.855453 6.8412 1.55658 6.8412 2.42131V6.69819C6.8412 6.95527 6.62561 7.16561 6.3621 7.16561ZM1.97829 1.79029C1.61896 1.79029 1.3315 2.07074 1.3315 2.42131V5.59976C1.3315 5.95032 1.61896 6.23077 1.97829 6.23077H5.88299V2.42131C5.88299 2.07074 5.59553 1.79029 5.2362 1.79029H1.97829Z" fill="white"/>
</svg>
