<svg width="15" height="14" viewBox="0 0 15 14" fill="none" xmlns="http://www.w3.org/2000/svg">
<path id="Vector" d="M7.5 13.6726C7.28643 13.6726 7.08059 13.5952 6.92013 13.4547C6.31415 12.9248 5.72994 12.4269 5.21449 11.9877L5.21186 11.9854C3.70066 10.6976 2.39569 9.58544 1.48772 8.48988C0.472764 7.26519 0 6.10392 0 4.83533C0 3.60281 0.422637 2.46571 1.18995 1.63339C1.96644 0.791221 3.03188 0.327393 4.19036 0.327393C5.05623 0.327393 5.84918 0.601143 6.54718 1.14097C6.89941 1.41343 7.21869 1.74691 7.5 2.13589C7.7814 1.74691 8.10059 1.41343 8.45294 1.14097C9.15094 0.601143 9.94389 0.327393 10.8098 0.327393C11.9681 0.327393 13.0337 0.791221 13.8102 1.63339C14.5775 2.46571 15 3.60281 15 4.83533C15 6.10389 14.5274 7.26516 13.5124 8.48977C12.6044 9.58544 11.2995 10.6975 9.78858 11.9851C9.27223 12.4251 8.68711 12.9238 8.07976 13.4549C7.91925 13.5953 7.71324 13.6726 7.5 13.6726ZM4.19036 1.20606C3.28022 1.20606 2.44412 1.56932 1.83586 2.22894C1.21857 2.89854 0.878555 3.82415 0.878555 4.83533C0.878555 5.90227 1.27509 6.85646 2.16419 7.92926C3.02353 8.96619 4.30172 10.0554 5.78168 11.3167L5.7844 11.319C6.30179 11.7599 6.88831 12.2598 7.49874 12.7936C8.11283 12.2588 8.70026 11.7581 9.21867 11.3165C10.6985 10.0552 11.9766 8.96619 12.8359 7.92926C13.7249 6.85646 14.1214 5.90227 14.1214 4.83533C14.1214 3.82412 13.7814 2.89852 13.1641 2.22894C12.556 1.56932 11.7198 1.20606 10.8098 1.20606C10.143 1.20606 9.53086 1.41803 8.99036 1.83595C8.50869 2.20857 8.17315 2.67961 7.9764 3.0092C7.87526 3.17868 7.6972 3.27984 7.5 3.27984C7.3028 3.27984 7.12474 3.17868 7.02357 3.0092C6.82699 2.67961 6.49143 2.20857 6.00961 1.83595C5.46914 1.41803 4.85698 1.20606 4.19036 1.20606Z" fill="#222222"/>
</svg>
